<svg id="Layer_2" xmlns="http://www.w3.org/2000/svg" viewBox="0 0 750.33 704.33"><defs><style>
      .cls-1 {
        fill: #010101;
      }
      .cls-1, .cls-2 {
        stroke-width: 0px;
      }
      .cls-2 {
        fill: #fff;
      }
    </style></defs><g id="Layer_2-2"><g id="Layer_1-2"><g><path class="cls-2" d="M749.94,466.49c-.99-.31-2.08-.46-2.97-.96-21.16-12-43.63-17.29-67.89-13.27-9.88,1.64-19.05,5.28-28.21,11.05-.19-.48-.31-1.03-.6-1.46-14.54-21.96-29.07-27.92-54.81-22.76-10.49,2.1-20.99,4.46-31.6,5.58-17.26,1.83-32.87-3.7-47.38-12.73-1.33-.83-2.67-1.63-4.78-1.89,1.16,1.95,1.97,4.24,3.54,5.78,5.36,5.28,10.88,10.41,16.51,15.4,9.2,8.16,19.16,15.57,27.68,24.38,13.34,13.79,19.11,30.81,17.75,50.27-.35-.14-.75-.16-.92-.37-11.27-14.52-26.55-23.11-43.82-27.77-15.66-4.22-31.74-6.91-47.63-10.28-19.38-4.1-36.45-12.46-50.03-27.22-.24-.26-.62-.39-1.25-.77.1,12.21,4.11,22.6,12.99,30.5,6.2,5.51,13.21,10.12,20.01,14.92,17.12,12.09,31.71,26.42,41.13,45.45,7.33,14.83,10.06,30.56,9,47-.06,1-.34,1.98-.67,3.88-5.97-6.09-11.05-12.07-16.93-17.12-18.76-16.14-41.09-21.65-65.32-20.72-11.76.45-23.53,1.95-35.27,1.73-17.77-.32-30.66-8.79-37.47-25.64-.3-.73-.6-1.47-.92-2.19-5.86-13.4-15.77-18.45-30.12-15.51-12.17,2.49-24.27,5.64-36.57,7.09-31.5,3.7-61.38-.75-86.98-21.28-20.56-16.48-31.72-38.54-36.32-64.16-.77-4.29-1.11-8.66-1.62-13-.07-.59,0-1.19,0-1.94,25.47,20.76,54.96,27.98,86.72,27.66,12.16-.12,23.91-2.65,34.58-8.92,1.57-.92,3.01-2.05,5.44-3.71-5.33-.59-9.74-.74-13.99-1.61-7.49-1.54-15.13-2.84-22.27-5.44-18.62-6.79-28.84-20.61-31.59-40.14-.7-4.98-1.43-9.96-2.46-14.88-4.01-19.18-17.11-30.1-36.73-30.1-8.85,0-17.73.79-26.54,1.7-38.42,3.96-63.49-9.85-80.71-44.72-6.84-13.85-13.28-27.92-20.58-41.52-6.24-11.61-14.45-21.86-24.95-30.08-9.37-7.34-20.03-11.67-31.74-13.56-1.02-.17-2.03-.41-3.65-.75,4.94-4.4,10.43-6.48,16.13-7.9,24.9-6.22,47.85-.71,68.96,12.78,8.18,5.23,15.16,12.32,22.78,18.44,3.48,2.8,6.92,5.85,10.86,7.82,6.85,3.42,14.01,3.53,20.01-1.94,6.06-5.53,6.53-12.73,4.37-20.17-1.81-6.24-6.04-10.83-11.08-14.63-10.13-7.63-21.8-11.7-34.07-14.31-.61-.13-1.23-.26-1.98-.42,3.01-2.94,11.44-6.15,19.22-7.51,30.01-5.26,56.04,3.21,78.47,23.24,10.66,9.53,20.52,19.97,31.2,29.47,13.78,12.27,29.48,21.08,48.21,23.2,13.29,1.51,26.35.49,39.77-4.98-4.18-1.53-7.58-2.72-10.94-4.01-19.96-7.68-33.88-21.39-42.12-41.2-5.07-12.17-10.32-24.36-16.65-35.9-8.6-15.68-22.17-25.27-40.01-28.39-.86-.15-1.7-.39-3.08-.72,9.32-5.83,19.04-8.93,29.39-10.01,28.91-3,54.26,5.84,76.89,23.48,8.25,6.43,16.37,13.03,24.75,19.29,9.77,7.29,20.45,12.31,32.82,13.89,27.96,3.59,47.08-22.25,37.16-48.79-4.32-11.56-12.25-20.27-22.03-27.48-.93-.69-1.85-1.39-3.34-2.52,8.33,0,16.09-.66,23.7.11,39.52,4.01,71.55,22.18,96.77,52.56,14.63,17.63,22.38,38.46,27.05,60.59,2.73,12.94,5.02,25.97,8.05,38.84,2.87,12.16,8.26,23.16,17.68,31.77,10.5,9.58,23.27,12.56,37.05,12.48,3.29-.02,6.58,0,9.88,0,1.94,7.34,3.67,15.2,6.1,22.84,5.38,16.9,15.64,29.84,31.88,37.64,17.62,8.46,35.33,16.74,52.8,25.49,20.09,10.06,38.31,22.71,51.67,41.18,4.39,6.07,7.78,12.87,11.61,19.6-.01.27.04.24.04.24M366.95,387.73h43.51v-70.55h-70.32v70.55h26.81Z"></path><path class="cls-2" d="M410.43,5.33v64.87h-70.02V0h70.02v5.33Z"></path><path class="cls-2" d="M400.71,634.25h9.57v70.08h-69.94v-70.08h60.38-.01Z"></path><path class="cls-1" d="M749.86,466.54c.14.13.31.24.47.35-.23-.02-.45-.04-.53-.23.14-.17.09-.14.06-.12h0Z"></path></g></g></g></svg>